<?xml version="1.0" encoding="utf-8"?>
<!-- Generator: Adobe Illustrator 16.0.0, SVG Export Plug-In . SVG Version: 6.00 Build 0)  -->
<!DOCTYPE svg PUBLIC "-//W3C//DTD SVG 1.1//EN" "http://www.w3.org/Graphics/SVG/1.1/DTD/svg11.dtd">
<svg version="1.1" id="Layer_1" xmlns="http://www.w3.org/2000/svg" xmlns:xlink="http://www.w3.org/1999/xlink" x="0px" y="0px"
	 width="875.311px" height="164.937px" viewBox="0 9.692 875.311 164.937" enable-background="new 0 9.692 875.311 164.937"
	 xml:space="preserve">
<g>
	<path fill="#FFFFFF" d="M227.185,76.631h-11.901V58.764h-13.76v17.867h-11.901V32.804h11.901v16.248h13.76V32.804h11.901V76.631z"
		/>
	<path fill="#FFFFFF" d="M252.545,42.067c4.296,0,7.654,1.064,10.072,3.193c2.418,2.128,3.627,5.161,3.627,9.098v22.273h-8.124
		l-2.249-4.497h-0.24c-0.959,1.199-1.944,2.173-2.953,2.923c-1.009,0.75-2.164,1.299-3.462,1.648
		c-1.299,0.35-2.888,0.525-4.767,0.525c-1.958,0-3.717-0.4-5.276-1.199c-1.559-0.799-2.788-2.008-3.687-3.627
		c-0.899-1.619-1.349-3.667-1.349-6.146c0-3.637,1.259-6.335,3.777-8.094s6.165-2.748,10.941-2.968l5.666-0.18v-0.479
		c0-1.519-0.375-2.598-1.125-3.237c-0.749-0.64-1.753-0.959-3.013-0.959c-1.339,0-2.833,0.235-4.481,0.705s-3.303,1.074-4.961,1.813
		l-3.387-7.734c1.958-0.999,4.177-1.758,6.655-2.278S249.467,42.067,252.545,42.067z M254.583,61.462l-2.698,0.12
		c-2.158,0.081-3.672,0.455-4.542,1.125s-1.304,1.624-1.304,2.863c0,1.159,0.31,2.014,0.93,2.563
		c0.619,0.55,1.438,0.824,2.458,0.824c1.418,0,2.633-0.45,3.642-1.349c1.009-0.899,1.514-2.069,1.514-3.507V61.462z"/>
	<path fill="#FFFFFF" d="M289.687,77.23c-3.438,0-6.425-0.615-8.963-1.844c-2.539-1.229-4.502-3.127-5.891-5.696
		c-1.39-2.567-2.083-5.86-2.083-9.877c0-4.117,0.774-7.484,2.323-10.102c1.548-2.618,3.672-4.546,6.37-5.786
		s5.756-1.859,9.173-1.859c2.079,0,4.052,0.23,5.921,0.689c1.868,0.46,3.602,1.09,5.201,1.889l-3.447,8.664
		c-1.399-0.619-2.703-1.114-3.912-1.484c-1.209-0.37-2.463-0.555-3.762-0.555c-1.179,0-2.218,0.31-3.118,0.929
		c-0.899,0.62-1.599,1.554-2.098,2.803c-0.5,1.249-0.75,2.833-0.75,4.751c0,1.959,0.255,3.538,0.765,4.737
		c0.509,1.199,1.219,2.068,2.128,2.608c0.909,0.54,1.953,0.809,3.132,0.809c1.698,0,3.392-0.264,5.081-0.794
		c1.689-0.529,3.292-1.264,4.812-2.204v9.323c-1.399,0.919-2.978,1.648-4.736,2.188C294.074,76.96,292.025,77.23,289.687,77.23z"/>
	<path fill="#FFFFFF" d="M322.603,42.067c3.297,0,6.145,0.575,8.543,1.724c2.398,1.149,4.247,2.874,5.546,5.171
		c1.299,2.298,1.948,5.176,1.948,8.633v5.216h-20.954c0.1,1.779,0.765,3.237,1.994,4.376s3.042,1.708,5.441,1.708
		c2.118,0,4.062-0.209,5.831-0.629c1.769-0.419,3.592-1.069,5.471-1.948v8.423c-1.639,0.859-3.428,1.489-5.366,1.889
		c-1.939,0.399-4.387,0.6-7.345,0.6c-3.417,0-6.475-0.609-9.173-1.829c-2.698-1.219-4.822-3.107-6.37-5.666
		c-1.549-2.558-2.323-5.845-2.323-9.862c0-4.077,0.699-7.429,2.098-10.057s3.357-4.577,5.876-5.846
		C316.337,42.702,319.265,42.067,322.603,42.067z M323.022,50.041c-1.379,0-2.533,0.435-3.462,1.304
		c-0.929,0.869-1.474,2.233-1.634,4.092h10.073c-0.021-0.999-0.22-1.908-0.6-2.728c-0.38-0.819-0.935-1.469-1.664-1.949
		C325.005,50.281,324.101,50.041,323.022,50.041z"/>
	<path fill="#FFFFFF" d="M361.903,67.967c1.059,0,2.028-0.109,2.908-0.33c0.879-0.22,1.798-0.5,2.758-0.839v8.543
		c-1.279,0.56-2.633,1.015-4.062,1.364c-1.429,0.35-3.252,0.525-5.471,0.525c-2.199,0-4.137-0.345-5.816-1.034
		s-2.982-1.889-3.912-3.597c-0.93-1.709-1.394-4.092-1.394-7.15v-14h-4.107v-4.766l5.216-3.687l3.028-7.135h7.674v6.805h8.333v8.783
		h-8.333v13.22c0,1.099,0.279,1.924,0.839,2.473C360.124,67.693,360.903,67.967,361.903,67.967z"/>
	<path fill="#FFFFFF" d="M390.142,67.967c1.059,0,2.028-0.109,2.908-0.33c0.879-0.22,1.798-0.5,2.758-0.839v8.543
		c-1.279,0.56-2.633,1.015-4.062,1.364c-1.429,0.35-3.252,0.525-5.471,0.525c-2.199,0-4.137-0.345-5.816-1.034
		s-2.982-1.889-3.912-3.597c-0.93-1.709-1.394-4.092-1.394-7.15v-14h-4.107v-4.766l5.216-3.687l3.028-7.135h7.674v6.805h8.333v8.783
		h-8.333v13.22c0,1.099,0.279,1.924,0.839,2.473C388.362,67.693,389.142,67.967,390.142,67.967z"/>
	<path fill="#FFFFFF" d="M417.031,42.067c3.297,0,6.145,0.575,8.543,1.724c2.398,1.149,4.247,2.874,5.546,5.171
		c1.299,2.298,1.948,5.176,1.948,8.633v5.216h-20.954c0.1,1.779,0.765,3.237,1.994,4.376s3.042,1.708,5.441,1.708
		c2.118,0,4.062-0.209,5.831-0.629c1.769-0.419,3.592-1.069,5.471-1.948v8.423c-1.639,0.859-3.428,1.489-5.366,1.889
		c-1.939,0.399-4.387,0.6-7.345,0.6c-3.417,0-6.475-0.609-9.173-1.829c-2.698-1.219-4.822-3.107-6.37-5.666
		c-1.549-2.558-2.323-5.845-2.323-9.862c0-4.077,0.699-7.429,2.098-10.057s3.357-4.577,5.876-5.846
		C410.766,42.702,413.693,42.067,417.031,42.067z M417.45,50.041c-1.379,0-2.533,0.435-3.462,1.304
		c-0.929,0.869-1.474,2.233-1.634,4.092h10.073c-0.021-0.999-0.22-1.908-0.6-2.728c-0.38-0.819-0.935-1.469-1.664-1.949
		C419.434,50.281,418.529,50.041,417.45,50.041z"/>
	<path fill="#FFFFFF" d="M460.438,42.067c3.757,0,6.705,1.504,8.843,4.512c2.139,3.008,3.208,7.34,3.208,12.995
		c0,3.857-0.54,7.1-1.619,9.728c-1.079,2.628-2.553,4.607-4.421,5.936c-1.869,1.33-3.992,1.994-6.37,1.994
		c-1.599,0-2.953-0.2-4.062-0.6c-1.109-0.399-2.029-0.899-2.758-1.499c-0.73-0.6-1.344-1.209-1.844-1.829h-0.36
		c0.1,0.78,0.185,1.619,0.255,2.518c0.07,0.899,0.105,1.949,0.105,3.148V91.38h-11.721V42.667h9.533l1.649,4.317h0.54
		c0.559-0.879,1.239-1.694,2.039-2.443c0.799-0.75,1.773-1.349,2.923-1.798C457.525,42.292,458.879,42.067,460.438,42.067z
		 M456.031,51.27c-1.139,0-2.039,0.27-2.698,0.81c-0.659,0.54-1.134,1.354-1.424,2.443c-0.29,1.09-0.455,2.443-0.495,4.062v0.929
		c0,1.799,0.14,3.313,0.419,4.542c0.28,1.229,0.759,2.159,1.439,2.788c0.679,0.629,1.619,0.944,2.818,0.944
		c0.979,0,1.799-0.28,2.458-0.839c0.659-0.559,1.159-1.449,1.499-2.668c0.34-1.219,0.51-2.828,0.51-4.826
		c0-2.978-0.385-5.086-1.154-6.325C458.634,51.89,457.51,51.27,456.031,51.27z"/>
	<path fill="#FFFFFF" d="M494.462,42.067c3.297,0,6.145,0.575,8.543,1.724c2.398,1.149,4.247,2.874,5.546,5.171
		c1.299,2.298,1.948,5.176,1.948,8.633v5.216h-20.954c0.1,1.779,0.765,3.237,1.994,4.376s3.042,1.708,5.441,1.708
		c2.118,0,4.062-0.209,5.831-0.629c1.769-0.419,3.592-1.069,5.471-1.948v8.423c-1.639,0.859-3.428,1.489-5.366,1.889
		c-1.939,0.399-4.387,0.6-7.345,0.6c-3.417,0-6.475-0.609-9.173-1.829c-2.698-1.219-4.822-3.107-6.37-5.666
		c-1.549-2.558-2.323-5.845-2.323-9.862c0-4.077,0.699-7.429,2.098-10.057s3.357-4.577,5.876-5.846
		C488.197,42.702,491.125,42.067,494.462,42.067z M494.882,50.041c-1.379,0-2.533,0.435-3.462,1.304
		c-0.929,0.869-1.474,2.233-1.634,4.092h10.073c-0.021-0.999-0.22-1.908-0.6-2.728c-0.38-0.819-0.935-1.469-1.664-1.949
		C496.865,50.281,495.961,50.041,494.882,50.041z"/>
	<path fill="#FFFFFF" d="M571.024,32.804v26.38c0,3.677-0.7,6.87-2.098,9.578c-1.399,2.708-3.498,4.796-6.295,6.265
		c-2.798,1.469-6.306,2.204-10.522,2.204c-6.036,0-10.642-1.548-13.819-4.646c-3.178-3.098-4.767-7.474-4.767-13.13v-26.65h11.901
		v25.72c0,3.098,0.58,5.346,1.739,6.745c1.159,1.399,2.868,2.098,5.126,2.098c1.619,0,2.938-0.304,3.957-0.914
		c1.02-0.609,1.764-1.574,2.233-2.893c0.469-1.319,0.705-3.017,0.705-5.096V32.804H571.024z"/>
	<path fill="#FFFFFF" d="M600.792,42.067c3.497,0,6.355,0.989,8.574,2.968s3.327,5.146,3.327,9.503v22.093h-11.721V58.105
		c0-2.258-0.325-3.962-0.974-5.111c-0.649-1.149-1.694-1.724-3.132-1.724c-2.219,0-3.708,0.904-4.467,2.713
		c-0.76,1.809-1.139,4.402-1.139,7.779v14.869h-11.721V42.667h8.843l1.589,4.497h0.45c0.719-1.079,1.579-1.998,2.578-2.758
		c0.999-0.759,2.148-1.339,3.447-1.739C597.744,42.267,599.192,42.067,600.792,42.067z"/>
	<path fill="#FFFFFF" d="M626.632,28.997c1.679,0,3.143,0.35,4.392,1.049c1.249,0.7,1.874,2.088,1.874,4.167
		c0,2.019-0.625,3.383-1.874,4.092c-1.25,0.71-2.713,1.064-4.392,1.064c-1.719,0-3.183-0.354-4.392-1.064
		c-1.209-0.709-1.813-2.073-1.813-4.092c0-2.078,0.604-3.467,1.813-4.167C623.449,29.347,624.913,28.997,626.632,28.997z
		 M632.448,42.667v33.964h-11.721V42.667H632.448z"/>
	<path fill="#FFFFFF" d="M649.535,76.631l-12.95-33.964h12.231l5.755,20.085c0.06,0.18,0.165,0.64,0.315,1.379
		c0.15,0.74,0.225,1.429,0.225,2.068h0.21c0-0.679,0.07-1.329,0.21-1.949c0.14-0.619,0.25-1.099,0.33-1.438l6.025-20.145h12.201
		l-12.95,33.964H649.535z"/>
	<path fill="#FFFFFF" d="M693.421,42.067c3.297,0,6.145,0.575,8.543,1.724c2.398,1.149,4.247,2.874,5.546,5.171
		c1.299,2.298,1.948,5.176,1.948,8.633v5.216h-20.954c0.1,1.779,0.765,3.237,1.994,4.376s3.042,1.708,5.441,1.708
		c2.118,0,4.062-0.209,5.831-0.629c1.769-0.419,3.592-1.069,5.471-1.948v8.423c-1.639,0.859-3.428,1.489-5.366,1.889
		c-1.939,0.399-4.387,0.6-7.345,0.6c-3.417,0-6.475-0.609-9.173-1.829c-2.698-1.219-4.822-3.107-6.37-5.666
		c-1.549-2.558-2.323-5.845-2.323-9.862c0-4.077,0.699-7.429,2.098-10.057s3.357-4.577,5.876-5.846
		C687.156,42.702,690.083,42.067,693.421,42.067z M693.841,50.041c-1.379,0-2.533,0.435-3.462,1.304
		c-0.929,0.869-1.474,2.233-1.634,4.092h10.073c-0.021-0.999-0.22-1.908-0.6-2.728c-0.38-0.819-0.935-1.469-1.664-1.949
		C695.824,50.281,694.92,50.041,693.841,50.041z"/>
	<path fill="#FFFFFF" d="M736.588,42.067c0.64,0,1.309,0.045,2.009,0.135c0.699,0.09,1.219,0.165,1.559,0.225l-1.049,11.062
		c-0.38-0.1-0.869-0.185-1.469-0.255c-0.6-0.07-1.439-0.104-2.518-0.104c-0.74,0-1.529,0.07-2.368,0.209
		c-0.839,0.14-1.634,0.435-2.383,0.884s-1.364,1.129-1.844,2.039c-0.479,0.91-0.719,2.134-0.719,3.672v16.697h-11.721V42.667h8.724
		l1.829,5.426h0.569c0.619-1.119,1.414-2.133,2.383-3.042c0.969-0.909,2.058-1.634,3.268-2.173
		C734.065,42.337,735.309,42.067,736.588,42.067z"/>
	<path fill="#FFFFFF" d="M770.133,66.199c0,2.158-0.479,4.067-1.438,5.726c-0.959,1.659-2.494,2.958-4.602,3.897
		c-2.109,0.939-4.882,1.409-8.319,1.409c-2.418,0-4.582-0.13-6.49-0.39c-1.909-0.26-3.842-0.759-5.8-1.499v-9.383
		c2.138,0.979,4.316,1.684,6.535,2.113c2.219,0.43,3.967,0.645,5.246,0.645c1.319,0,2.283-0.145,2.893-0.435
		c0.609-0.29,0.914-0.724,0.914-1.304c0-0.499-0.205-0.924-0.614-1.274c-0.41-0.35-1.139-0.754-2.188-1.214
		c-1.049-0.459-2.523-1.08-4.422-1.859c-1.878-0.779-3.442-1.628-4.691-2.548c-1.249-0.919-2.184-2.019-2.803-3.297
		c-0.62-1.279-0.929-2.848-0.929-4.707c0-3.317,1.279-5.816,3.837-7.495s5.945-2.518,10.163-2.518c2.238,0,4.347,0.245,6.325,0.734
		c1.979,0.49,4.026,1.205,6.145,2.144l-3.208,7.554c-1.679-0.759-3.377-1.369-5.096-1.829c-1.719-0.459-3.087-0.689-4.107-0.689
		c-0.919,0-1.629,0.12-2.128,0.36s-0.749,0.59-0.749,1.049c0,0.419,0.174,0.79,0.524,1.109c0.35,0.32,1.014,0.689,1.994,1.109
		c0.979,0.419,2.408,1.009,4.287,1.769c1.979,0.799,3.612,1.654,4.901,2.563c1.289,0.91,2.248,2.014,2.878,3.313
		C769.819,62.552,770.133,64.201,770.133,66.199z"/>
	<path fill="#FFFFFF" d="M782.604,28.997c1.679,0,3.143,0.35,4.392,1.049c1.249,0.7,1.874,2.088,1.874,4.167
		c0,2.019-0.625,3.383-1.874,4.092c-1.25,0.71-2.713,1.064-4.392,1.064c-1.719,0-3.183-0.354-4.392-1.064
		c-1.209-0.709-1.813-2.073-1.813-4.092c0-2.078,0.604-3.467,1.813-4.167C779.421,29.347,780.885,28.997,782.604,28.997z
		 M788.419,42.667v33.964h-11.721V42.667H788.419z"/>
	<path fill="#FFFFFF" d="M813.241,67.967c1.059,0,2.028-0.109,2.908-0.33c0.879-0.22,1.798-0.5,2.758-0.839v8.543
		c-1.279,0.56-2.633,1.015-4.062,1.364c-1.429,0.35-3.252,0.525-5.471,0.525c-2.199,0-4.137-0.345-5.816-1.034
		s-2.982-1.889-3.912-3.597c-0.93-1.709-1.394-4.092-1.394-7.15v-14h-4.107v-4.766l5.216-3.687l3.028-7.135h7.674v6.805h8.333v8.783
		h-8.333v13.22c0,1.099,0.279,1.924,0.839,2.473C811.461,67.693,812.241,67.967,813.241,67.967z"/>
	<path fill="#FFFFFF" d="M820.735,42.667h12.351l5.756,19.485c0.08,0.28,0.16,0.625,0.24,1.034c0.08,0.41,0.15,0.845,0.21,1.304
		c0.06,0.46,0.1,0.91,0.12,1.349h0.24c0.1-0.819,0.214-1.533,0.345-2.143c0.129-0.609,0.254-1.104,0.375-1.484l5.905-19.545h11.961
		l-13.43,36.123c-1.039,2.758-2.244,5.071-3.612,6.94c-1.369,1.868-3.058,3.277-5.066,4.227c-2.009,0.949-4.502,1.424-7.479,1.424
		c-1.079,0-2.004-0.056-2.773-0.165c-0.77-0.11-1.444-0.225-2.023-0.345v-9.203c0.439,0.08,0.979,0.16,1.619,0.24
		c0.64,0.08,1.309,0.12,2.009,0.12c1.299,0,2.353-0.26,3.163-0.779c0.809-0.52,1.474-1.205,1.993-2.054
		c0.52-0.85,0.969-1.764,1.349-2.743l0.12-0.3L820.735,42.667z"/>
</g>
<g>
	<path fill="#FFFFFF" d="M204.177,117.3c-1.422,0-2.68,0.275-3.774,0.827s-2.013,1.346-2.755,2.384
		c-0.743,1.039-1.306,2.292-1.689,3.762s-0.575,3.123-0.575,4.96c0,2.477,0.308,4.589,0.922,6.338
		c0.615,1.749,1.57,3.083,2.864,4.001c1.294,0.919,2.963,1.378,5.008,1.378c1.421,0,2.847-0.16,4.277-0.479
		c1.429-0.319,2.983-0.775,4.661-1.366v6.23c-1.55,0.639-3.076,1.099-4.577,1.378s-3.187,0.419-5.056,0.419
		c-3.61,0-6.578-0.747-8.902-2.241c-2.324-1.494-4.046-3.586-5.164-6.278c-1.118-2.691-1.677-5.835-1.677-9.429
		c0-2.651,0.359-5.08,1.078-7.285c0.719-2.205,1.773-4.113,3.163-5.727c1.39-1.613,3.107-2.859,5.152-3.738s4.393-1.318,7.045-1.318
		c1.741,0,3.486,0.22,5.236,0.659c1.749,0.439,3.422,1.042,5.02,1.809l-2.396,6.039c-1.31-0.623-2.628-1.166-3.954-1.629
		C206.756,117.532,205.455,117.3,204.177,117.3z"/>
	<path fill="#FFFFFF" d="M244.338,133.211c0,2.237-0.3,4.217-0.899,5.942c-0.599,1.726-1.47,3.184-2.612,4.374
		c-1.143,1.19-2.516,2.089-4.122,2.696s-3.415,0.911-5.428,0.911c-1.885,0-3.614-0.304-5.188-0.911
		c-1.574-0.607-2.939-1.506-4.098-2.696c-1.159-1.19-2.053-2.648-2.684-4.374c-0.631-1.725-0.946-3.706-0.946-5.942
		c0-2.972,0.527-5.487,1.582-7.548c1.054-2.061,2.556-3.626,4.505-4.697c1.949-1.07,4.273-1.605,6.973-1.605
		c2.508,0,4.732,0.536,6.673,1.605c1.941,1.071,3.466,2.636,4.577,4.697C243.782,127.724,244.338,130.24,244.338,133.211z
		 M225.814,133.211c0,1.757,0.192,3.235,0.575,4.433c0.383,1.198,0.982,2.101,1.797,2.708c0.814,0.607,1.877,0.911,3.187,0.911
		c1.294,0,2.344-0.303,3.151-0.911c0.807-0.607,1.398-1.51,1.773-2.708c0.375-1.198,0.563-2.676,0.563-4.433
		c0-1.773-0.188-3.247-0.563-4.421c-0.375-1.174-0.971-2.057-1.785-2.647c-0.815-0.591-1.877-0.887-3.187-0.887
		c-1.933,0-3.335,0.663-4.206,1.989C226.25,128.571,225.814,130.56,225.814,133.211z"/>
	<path fill="#FFFFFF" d="M281.839,119.361c3.035,0,5.332,0.779,6.889,2.336s2.336,4.054,2.336,7.488v17.469h-7.333v-15.647
		c0-1.917-0.328-3.363-0.982-4.337c-0.655-0.974-1.669-1.461-3.043-1.461c-1.933,0-3.307,0.691-4.122,2.073
		c-0.814,1.382-1.222,3.359-1.222,5.931v13.443h-7.309v-15.647c0-1.278-0.144-2.349-0.431-3.211
		c-0.288-0.863-0.727-1.51-1.318-1.941c-0.591-0.432-1.35-0.647-2.276-0.647c-1.358,0-2.424,0.339-3.199,1.018
		c-0.775,0.679-1.326,1.678-1.653,2.996c-0.328,1.318-0.491,2.927-0.491,4.828v12.604h-7.309v-26.79h5.583l0.982,3.427h0.407
		c0.543-0.926,1.226-1.678,2.049-2.252c0.823-0.575,1.729-0.999,2.72-1.27c0.99-0.271,1.997-0.408,3.019-0.408
		c1.965,0,3.63,0.32,4.997,0.958c1.366,0.639,2.416,1.629,3.151,2.972h0.647c0.799-1.374,1.929-2.373,3.391-2.996
		C278.784,119.672,280.29,119.361,281.839,119.361z"/>
	<path fill="#FFFFFF" d="M313.47,119.361c3.019,0,5.459,1.174,7.32,3.522c1.861,2.349,2.792,5.791,2.792,10.328
		c0,3.035-0.44,5.587-1.318,7.656c-0.878,2.069-2.093,3.63-3.642,4.685c-1.55,1.054-3.331,1.582-5.344,1.582
		c-1.294,0-2.404-0.164-3.331-0.492c-0.927-0.327-1.718-0.75-2.373-1.27c-0.655-0.519-1.222-1.074-1.701-1.665h-0.383
		c0.127,0.639,0.224,1.294,0.288,1.965c0.063,0.671,0.096,1.326,0.096,1.965v10.807h-7.309v-38.58h5.943l1.03,3.475h0.335
		c0.479-0.719,1.062-1.382,1.749-1.989s1.514-1.09,2.48-1.45C311.069,119.541,312.191,119.361,313.47,119.361z M311.121,125.208
		c-1.278,0-2.292,0.263-3.043,0.791c-0.751,0.527-1.298,1.318-1.642,2.373c-0.344,1.054-0.531,2.388-0.563,4.001v0.791
		c0,1.725,0.164,3.187,0.491,4.385c0.327,1.198,0.878,2.109,1.653,2.732s1.841,0.935,3.199,0.935c1.118,0,2.037-0.312,2.755-0.935
		c0.719-0.623,1.258-1.538,1.618-2.744s0.539-2.68,0.539-4.421c0-2.62-0.407-4.592-1.222-5.918
		C314.093,125.871,312.831,125.208,311.121,125.208z"/>
	<path fill="#FFFFFF" d="M354.206,119.864v26.79h-5.607l-0.982-3.427h-0.384c-0.575,0.911-1.294,1.653-2.156,2.229
		c-0.863,0.575-1.813,0.999-2.852,1.27c-1.039,0.271-2.117,0.408-3.235,0.408c-1.917,0-3.586-0.34-5.008-1.019
		c-1.422-0.679-2.528-1.737-3.319-3.175c-0.791-1.438-1.186-3.307-1.186-5.607v-17.469h7.309v15.647c0,1.917,0.343,3.363,1.03,4.337
		c0.687,0.975,1.781,1.461,3.283,1.461c1.486,0,2.652-0.339,3.499-1.018c0.847-0.679,1.441-1.678,1.785-2.996
		c0.343-1.318,0.515-2.927,0.515-4.829v-12.604H354.206z"/>
	<path fill="#FFFFFF" d="M373.16,141.311c0.799,0,1.578-0.08,2.336-0.24c0.759-0.159,1.514-0.359,2.265-0.599v5.439
		c-0.783,0.352-1.753,0.643-2.912,0.875s-2.424,0.348-3.798,0.348c-1.598,0-3.031-0.26-4.301-0.779
		c-1.27-0.519-2.269-1.422-2.996-2.708c-0.727-1.286-1.09-3.079-1.09-5.379v-12.916h-3.499v-3.091l4.025-2.444l2.109-5.655h4.672
		v5.703h7.5v5.487h-7.5v12.916c0,1.022,0.292,1.785,0.875,2.288C371.431,141.059,372.202,141.311,373.16,141.311z"/>
	<path fill="#FFFFFF" d="M394.224,119.361c2.476,0,4.608,0.476,6.398,1.426c1.789,0.951,3.171,2.329,4.146,4.134
		c0.974,1.805,1.461,4.01,1.461,6.614v3.546h-17.277c0.08,2.061,0.699,3.678,1.857,4.852c1.158,1.174,2.768,1.761,4.828,1.761
		c1.709,0,3.275-0.175,4.697-0.527c1.421-0.351,2.883-0.878,4.385-1.582v5.655c-1.326,0.655-2.712,1.134-4.158,1.438
		s-3.199,0.456-5.26,0.456c-2.684,0-5.06-0.495-7.129-1.486c-2.069-0.99-3.69-2.5-4.864-4.529s-1.761-4.585-1.761-7.668
		c0-3.131,0.531-5.739,1.593-7.824c1.063-2.084,2.544-3.65,4.445-4.696C389.487,119.884,391.699,119.361,394.224,119.361z
		 M394.271,124.561c-1.422,0-2.6,0.455-3.535,1.366s-1.474,2.34-1.617,4.289h10.256c-0.016-1.086-0.212-2.052-0.587-2.899
		c-0.376-0.846-0.935-1.518-1.678-2.013C396.368,124.809,395.422,124.561,394.271,124.561z"/>
	<path fill="#FFFFFF" d="M427.124,119.361c0.367,0,0.794,0.021,1.282,0.06c0.487,0.04,0.882,0.092,1.186,0.156l-0.551,6.853
		c-0.24-0.08-0.579-0.14-1.019-0.18c-0.439-0.04-0.819-0.06-1.138-0.06c-0.943,0-1.857,0.12-2.744,0.359s-1.682,0.627-2.384,1.162
		c-0.703,0.536-1.258,1.238-1.666,2.109c-0.407,0.871-0.611,1.937-0.611,3.199v13.635h-7.309v-26.79h5.535l1.079,4.505h0.359
		c0.527-0.911,1.186-1.745,1.977-2.504c0.791-0.759,1.693-1.366,2.708-1.821C424.843,119.588,425.941,119.361,427.124,119.361z"/>
	<path fill="#FFFFFF" d="M467.956,146.654H447.78v-35.033h20.176v6.086h-12.748v7.692h11.861v6.086h-11.861v9.034h12.748V146.654z"
		/>
	<path fill="#FFFFFF" d="M489.906,119.361c2.859,0,5.16,0.779,6.901,2.336c1.741,1.558,2.612,4.054,2.612,7.488v17.469h-7.309
		v-15.647c0-1.917-0.348-3.363-1.042-4.337c-0.695-0.974-1.785-1.461-3.271-1.461c-2.237,0-3.762,0.759-4.577,2.276
		c-0.815,1.518-1.222,3.706-1.222,6.565v12.604h-7.309v-26.79h5.583l0.982,3.427h0.407c0.575-0.926,1.29-1.678,2.145-2.252
		c0.854-0.575,1.805-0.999,2.852-1.27S488.787,119.361,489.906,119.361z"/>
	<path fill="#FFFFFF" d="M514.779,158.444c-3.738,0-6.594-0.651-8.567-1.953s-2.959-3.127-2.959-5.475
		c0-1.614,0.503-2.964,1.51-4.05c1.006-1.086,2.484-1.861,4.433-2.324c-0.751-0.319-1.406-0.843-1.965-1.57
		c-0.56-0.727-0.839-1.498-0.839-2.313c0-1.022,0.295-1.873,0.887-2.552c0.591-0.679,1.446-1.346,2.564-2.001
		c-1.406-0.607-2.52-1.582-3.343-2.923s-1.234-2.923-1.234-4.745c0-1.949,0.427-3.606,1.282-4.972s2.101-2.408,3.738-3.127
		c1.637-0.719,3.63-1.079,5.979-1.079c0.495,0,1.07,0.032,1.726,0.096c0.655,0.064,1.258,0.136,1.809,0.215
		c0.551,0.08,0.922,0.144,1.114,0.192h9.345v3.714l-4.193,1.078c0.383,0.591,0.671,1.222,0.863,1.893
		c0.191,0.671,0.288,1.382,0.288,2.133c0,2.875-1.003,5.116-3.007,6.721c-2.005,1.605-4.789,2.408-8.351,2.408
		c-0.847-0.048-1.646-0.111-2.396-0.191c-0.368,0.288-0.647,0.591-0.839,0.91c-0.192,0.32-0.288,0.655-0.288,1.007
		s0.147,0.643,0.443,0.875c0.295,0.232,0.743,0.407,1.342,0.527c0.599,0.12,1.346,0.18,2.241,0.18h4.553
		c2.939,0,5.18,0.631,6.722,1.893c1.541,1.262,2.312,3.115,2.312,5.559c0,3.131-1.306,5.559-3.918,7.285
		C523.417,157.581,519.667,158.444,514.779,158.444z M515.09,153.675c1.741,0,3.238-0.164,4.493-0.491
		c1.254-0.328,2.217-0.791,2.888-1.39s1.006-1.314,1.006-2.145c0-0.671-0.196-1.202-0.587-1.593
		c-0.392-0.392-0.982-0.667-1.773-0.827c-0.791-0.16-1.801-0.24-3.031-0.24h-3.786c-0.895,0-1.698,0.144-2.408,0.431
		c-0.711,0.288-1.274,0.691-1.689,1.21c-0.416,0.519-0.623,1.122-0.623,1.809c0,1.006,0.483,1.797,1.45,2.372
		C511.995,153.388,513.349,153.675,515.09,153.675z M516.264,133.355c1.374,0,2.38-0.423,3.02-1.27
		c0.639-0.846,0.958-1.997,0.958-3.451c0-1.613-0.332-2.823-0.995-3.63c-0.663-0.807-1.657-1.21-2.983-1.21
		c-1.342,0-2.348,0.404-3.019,1.21s-1.006,2.017-1.006,3.63c0,1.454,0.331,2.604,0.994,3.451
		C513.896,132.932,514.906,133.355,516.264,133.355z"/>
	<path fill="#FFFFFF" d="M538.334,109.369c1.086,0,2.021,0.251,2.803,0.755c0.783,0.503,1.174,1.442,1.174,2.815
		c0,1.358-0.392,2.297-1.174,2.815c-0.783,0.52-1.717,0.779-2.803,0.779c-1.103,0-2.041-0.259-2.816-0.779
		c-0.775-0.519-1.162-1.458-1.162-2.815c0-1.374,0.387-2.313,1.162-2.815C536.293,109.62,537.231,109.369,538.334,109.369z
		 M541.976,119.864v26.79h-7.309v-26.79H541.976z"/>
	<path fill="#FFFFFF" d="M564.86,119.361c2.859,0,5.16,0.779,6.901,2.336c1.741,1.558,2.612,4.054,2.612,7.488v17.469h-7.309
		v-15.647c0-1.917-0.348-3.363-1.042-4.337c-0.695-0.974-1.785-1.461-3.271-1.461c-2.237,0-3.762,0.759-4.577,2.276
		c-0.815,1.518-1.222,3.706-1.222,6.565v12.604h-7.309v-26.79h5.583l0.982,3.427h0.407c0.575-0.926,1.29-1.678,2.145-2.252
		c0.854-0.575,1.805-0.999,2.852-1.27S563.742,119.361,564.86,119.361z"/>
	<path fill="#FFFFFF" d="M592.945,119.361c2.476,0,4.608,0.476,6.398,1.426c1.789,0.951,3.171,2.329,4.146,4.134
		c0.974,1.805,1.461,4.01,1.461,6.614v3.546h-17.277c0.08,2.061,0.699,3.678,1.857,4.852c1.158,1.174,2.768,1.761,4.828,1.761
		c1.709,0,3.275-0.175,4.697-0.527c1.421-0.351,2.883-0.878,4.385-1.582v5.655c-1.326,0.655-2.712,1.134-4.158,1.438
		s-3.199,0.456-5.26,0.456c-2.684,0-5.06-0.495-7.129-1.486c-2.069-0.99-3.69-2.5-4.864-4.529s-1.761-4.585-1.761-7.668
		c0-3.131,0.531-5.739,1.593-7.824c1.063-2.084,2.544-3.65,4.445-4.696C588.208,119.884,590.42,119.361,592.945,119.361z
		 M592.993,124.561c-1.422,0-2.6,0.455-3.535,1.366s-1.474,2.34-1.617,4.289h10.256c-0.016-1.086-0.212-2.052-0.587-2.899
		c-0.376-0.846-0.935-1.518-1.678-2.013C595.089,124.809,594.143,124.561,592.993,124.561z"/>
	<path fill="#FFFFFF" d="M621.939,119.361c2.476,0,4.608,0.476,6.398,1.426c1.789,0.951,3.171,2.329,4.146,4.134
		c0.974,1.805,1.461,4.01,1.461,6.614v3.546h-17.277c0.08,2.061,0.699,3.678,1.857,4.852c1.158,1.174,2.768,1.761,4.828,1.761
		c1.709,0,3.275-0.175,4.697-0.527c1.421-0.351,2.883-0.878,4.385-1.582v5.655c-1.326,0.655-2.712,1.134-4.158,1.438
		s-3.199,0.456-5.26,0.456c-2.684,0-5.06-0.495-7.129-1.486c-2.069-0.99-3.69-2.5-4.864-4.529s-1.761-4.585-1.761-7.668
		c0-3.131,0.531-5.739,1.593-7.824c1.063-2.084,2.544-3.65,4.445-4.696C617.203,119.884,619.415,119.361,621.939,119.361z
		 M621.987,124.561c-1.422,0-2.6,0.455-3.535,1.366s-1.474,2.34-1.617,4.289h10.256c-0.016-1.086-0.212-2.052-0.587-2.899
		c-0.376-0.846-0.935-1.518-1.678-2.013C624.084,124.809,623.138,124.561,621.987,124.561z"/>
	<path fill="#FFFFFF" d="M654.84,119.361c0.367,0,0.794,0.021,1.282,0.06c0.487,0.04,0.882,0.092,1.186,0.156l-0.551,6.853
		c-0.24-0.08-0.579-0.14-1.019-0.18c-0.439-0.04-0.819-0.06-1.138-0.06c-0.943,0-1.857,0.12-2.744,0.359s-1.682,0.627-2.384,1.162
		c-0.703,0.536-1.258,1.238-1.666,2.109c-0.407,0.871-0.611,1.937-0.611,3.199v13.635h-7.309v-26.79h5.535l1.079,4.505h0.359
		c0.527-0.911,1.186-1.745,1.977-2.504c0.791-0.759,1.693-1.366,2.708-1.821C652.559,119.588,653.657,119.361,654.84,119.361z"/>
	<path fill="#FFFFFF" d="M665.839,109.369c1.086,0,2.021,0.251,2.803,0.755c0.783,0.503,1.174,1.442,1.174,2.815
		c0,1.358-0.392,2.297-1.174,2.815c-0.783,0.52-1.717,0.779-2.803,0.779c-1.103,0-2.041-0.259-2.816-0.779
		c-0.775-0.519-1.162-1.458-1.162-2.815c0-1.374,0.387-2.313,1.162-2.815C663.798,109.62,664.736,109.369,665.839,109.369z
		 M669.481,119.864v26.79h-7.309v-26.79H669.481z"/>
	<path fill="#FFFFFF" d="M692.365,119.361c2.859,0,5.16,0.779,6.901,2.336c1.741,1.558,2.612,4.054,2.612,7.488v17.469h-7.309
		v-15.647c0-1.917-0.348-3.363-1.042-4.337c-0.695-0.974-1.785-1.461-3.271-1.461c-2.237,0-3.762,0.759-4.577,2.276
		c-0.815,1.518-1.222,3.706-1.222,6.565v12.604h-7.309v-26.79h5.583l0.982,3.427h0.407c0.575-0.926,1.29-1.678,2.145-2.252
		c0.854-0.575,1.805-0.999,2.852-1.27S691.247,119.361,692.365,119.361z"/>
	<path fill="#FFFFFF" d="M717.238,158.444c-3.738,0-6.594-0.651-8.567-1.953s-2.959-3.127-2.959-5.475
		c0-1.614,0.503-2.964,1.51-4.05c1.006-1.086,2.484-1.861,4.433-2.324c-0.751-0.319-1.406-0.843-1.965-1.57
		c-0.56-0.727-0.839-1.498-0.839-2.313c0-1.022,0.295-1.873,0.887-2.552c0.591-0.679,1.446-1.346,2.564-2.001
		c-1.406-0.607-2.52-1.582-3.343-2.923s-1.234-2.923-1.234-4.745c0-1.949,0.427-3.606,1.282-4.972s2.101-2.408,3.738-3.127
		c1.637-0.719,3.63-1.079,5.979-1.079c0.495,0,1.07,0.032,1.726,0.096c0.655,0.064,1.258,0.136,1.809,0.215
		c0.551,0.08,0.922,0.144,1.114,0.192h9.345v3.714l-4.193,1.078c0.383,0.591,0.671,1.222,0.863,1.893
		c0.191,0.671,0.288,1.382,0.288,2.133c0,2.875-1.003,5.116-3.007,6.721c-2.005,1.605-4.789,2.408-8.351,2.408
		c-0.847-0.048-1.646-0.111-2.396-0.191c-0.368,0.288-0.647,0.591-0.839,0.91c-0.192,0.32-0.288,0.655-0.288,1.007
		s0.147,0.643,0.443,0.875c0.295,0.232,0.743,0.407,1.342,0.527c0.599,0.12,1.346,0.18,2.241,0.18h4.553
		c2.939,0,5.18,0.631,6.722,1.893c1.541,1.262,2.312,3.115,2.312,5.559c0,3.131-1.306,5.559-3.918,7.285
		C725.876,157.581,722.126,158.444,717.238,158.444z M717.55,153.675c1.741,0,3.238-0.164,4.493-0.491
		c1.254-0.328,2.217-0.791,2.888-1.39s1.006-1.314,1.006-2.145c0-0.671-0.196-1.202-0.587-1.593
		c-0.392-0.392-0.982-0.667-1.773-0.827c-0.791-0.16-1.801-0.24-3.031-0.24h-3.786c-0.895,0-1.698,0.144-2.408,0.431
		c-0.711,0.288-1.274,0.691-1.689,1.21c-0.416,0.519-0.623,1.122-0.623,1.809c0,1.006,0.483,1.797,1.45,2.372
		C714.454,153.388,715.808,153.675,717.55,153.675z M718.724,133.355c1.374,0,2.38-0.423,3.02-1.27
		c0.639-0.846,0.958-1.997,0.958-3.451c0-1.613-0.332-2.823-0.995-3.63c-0.663-0.807-1.657-1.21-2.983-1.21
		c-1.342,0-2.348,0.404-3.019,1.21s-1.006,2.017-1.006,3.63c0,1.454,0.331,2.604,0.994,3.451
		C716.355,132.932,717.366,133.355,718.724,133.355z"/>
</g>
<g>
	<path fill="#EC1C24" d="M114.814,20.344l-0.344-1.03l-1.03-0.687c-12.715-6.186-26.803-8.935-43.64-8.935
		c-16.495,0-31.27,3.093-43.64,8.935l-1.031,0.687l-0.344,1.03c-7.56,23.367-10.996,45.703-10.996,72.504
		c0,24.741,3.78,50.171,10.996,72.504l0.344,1.032l1.031,0.344c12.371,5.155,26.458,7.901,40.891,7.901c1.031,0,1.719,0,2.75,0
		c19.243-0.341,33.331-3.09,43.64-7.901l1.03-0.688l0.344-1.032c7.56-26.115,10.996-49.824,10.652-72.502
		C124.78,67.077,121,41.992,114.814,20.344z"/>
	<g>
		<path fill="#FFFFFF" d="M109.66,24.124l-0.344-0.687l-0.687-0.344c-13.745-5.841-24.397-7.216-37.455-7.56
			c-0.688,0-1.375,0-1.719,0c-11.683,0-27.833,2.405-38.485,7.904h-0.688l-0.342,0.687c-7.56,20.617-10.31,48.45-10.31,68.037
			c0,24.052,3.78,50.511,9.965,69.068l0.344,0.688l0.687,0.344c11.34,4.467,24.053,6.872,38.829,6.872h1.031
			c11.683,0,28.177-2.061,38.143-6.531l0.687-0.341l0.344-0.688c5.155-18.901,10.31-41.923,9.965-68.381
			C118.937,69.139,115.501,44.741,109.66,24.124z M106.566,159.856c-9.622,4.123-25.084,5.84-36.08,5.84h-1.031
			c-13.745,0-26.114-2.061-36.768-6.184c-5.841-18.213-9.621-43.984-9.621-67.351c0-17.868,2.405-46.045,9.621-66.318
			c9.965-4.811,25.428-7.216,36.424-7.216c0.688,0,1.375,0,1.719,0c12.714,0.342,22.678,1.717,35.736,7.216
			c5.499,20.273,8.935,43.982,9.621,67.349C116.875,118.618,111.721,140.954,106.566,159.856z"/>
		<path fill="#FFFFFF" d="M72.548,95.253c-9.964,0-15.806,5.499-15.806,5.155c-0.344-27.489,2.406-40.891,4.467-50.168
			c1.031-5.499,4.811-11.685,10.652-16.495c2.406-2.062,4.468-3.78,4.811-4.123c0.344-0.344,0-1.032-0.687-0.688
			c-0.688,0.344-1.718,1.375-3.78,2.405c-7.56,4.811-16.837,9.621-24.741,12.371c-2.062,0.687-4.811,2.061-5.498,2.405
			c-0.344,0.344-0.344,1.03,0.344,0.687c2.061-0.687,4.466-1.031,5.497-1.374c1.375-0.344,4.124-0.688,5.841,0.343
			c2.405,1.375,1.375,6.185,1.375,6.185c-2.062,14.09-3.436,26.459-3.092,43.296c0.687,23.365,4.811,39.861,9.965,59.445
			c0.343,1.72,2.062,1.376,1.717,0c-2.061-11.68-3.436-18.555-5.841-38.485c0-1.373-0.688-9.965-0.344-9.965
			c3.78-2.747,8.247-4.81,15.462-4.81c7.56,0,13.401,3.78,15.807,6.186l-9.621,46.733c-0.343,1.373,1.375,1.717,1.719,0.341
			c0.344-1.373,13.401-48.104,12.713-49.136C90.073,100.408,83.545,95.597,72.548,95.253z"/>
	</g>
</g>
</svg>
